<svg width="111" height="22" viewBox="0 0 111 22" fill="none" xmlns="http://www.w3.org/2000/svg">
<path d="M8.28467 9.93118C9.26719 9.93151 10.2401 9.73821 11.148 9.36232C12.0558 8.98642 12.8807 8.43531 13.5756 7.74045C14.2704 7.04558 14.8217 6.22059 15.1977 5.31258C15.5738 4.40457 15.7674 3.43134 15.7674 2.44849H8.28467V9.93118Z" fill="#7557D3"/>
<path d="M0 10.7329C-5.54313e-08 11.7158 0.193571 12.689 0.569642 13.597C0.945713 14.505 1.4969 15.33 2.19176 16.0249C2.88663 16.7197 3.71154 17.2708 4.61937 17.6467C5.52719 18.0226 6.50017 18.2159 7.4827 18.2156V10.7329H0Z" fill="#7557D3"/>
<path d="M8.28467 10.7329V18.2156H15.7674C15.7674 17.2328 15.5738 16.2595 15.1977 15.3515C14.8217 14.4435 14.2704 13.6185 13.5756 12.9236C12.8807 12.2288 12.0558 11.6777 11.148 11.3018C10.2401 10.9259 9.26719 10.7326 8.28467 10.7329Z" fill="#7557D3"/>
<path d="M0 9.93118H7.4827V2.44849C6.50017 2.44816 5.52719 2.64146 4.61937 3.01735C3.71154 3.39325 2.88663 3.94436 2.19176 4.63922C1.4969 5.33409 0.945713 6.1591 0.569642 7.06711C0.193571 7.97511 -5.54312e-08 8.94833 0 9.93118Z" fill="#7557D3"/>
<path d="M16.5688 2.44849C16.5688 4.43302 17.3572 6.33628 18.7605 7.73956C20.1638 9.14283 22.067 9.93118 24.0515 9.93118V2.44849H16.5688Z" fill="#7557D3"/>
<path d="M16.5688 18.2156H24.0515V10.7329C22.067 10.7329 20.1638 11.5213 18.7605 12.9245C17.3572 14.3278 16.5688 16.2311 16.5688 18.2156Z" fill="#7557D3"/>
<path d="M35.7688 15.0067C37.653 15.0067 38.9889 14.3392 40.2971 13.0587L41.882 14.5848C40.4153 16.2475 38.5713 17.4138 35.8065 17.4138C31.3259 17.4138 28.3271 14.3392 28.3271 10.4656C28.3271 6.59192 31.419 3.51733 35.5474 3.51733C39.6103 3.51733 42.4908 6.5274 42.4908 10.2025C42.4895 10.5897 42.4465 10.9757 42.3625 11.3539H31.341C31.6278 13.4707 33.3939 15.0067 35.7688 15.0067ZM31.4341 9.14042H39.4166C39.0417 7.28425 37.5348 5.93929 35.5348 5.93929C34.5872 5.94506 33.6687 6.2633 32.9256 6.84338C32.1826 7.42346 31.6575 8.23203 31.4341 9.14042Z" fill="#7557D3"/>
<path d="M56.6548 8.93167V17.1465H53.7271V9.18061C53.7271 7.38081 52.5082 6.12368 50.7421 6.12368C48.9188 6.12368 47.302 7.63971 47.302 9.81042V17.1465H44.3618V3.82601H47.302V5.59843C47.7631 4.95614 48.3699 4.43256 49.0726 4.07077C49.7754 3.70897 50.5539 3.51929 51.3441 3.51733C54.5405 3.51733 56.6548 5.65071 56.6548 8.93167Z" fill="#7557D3"/>
<path d="M67.2192 3.78442L63.7226 13.3796L60.256 3.78442H57.189L62.2415 17.1039L60.6656 21.4222H63.6002L70.2837 3.78442H67.2192Z" fill="#7557D3"/>
<path d="M76.5493 3.51805C77.4413 3.5044 78.3253 3.68694 79.1377 4.05253C79.9501 4.41812 80.6708 4.95769 81.2479 5.63247V3.82578H84.1803V17.1054H81.2479V15.3136C80.6677 15.9837 79.946 16.519 79.1341 16.8818C78.3221 17.2447 77.4397 17.426 76.5493 17.4131C72.7788 17.4131 70.0166 14.3383 70.0166 10.4643C70.0166 6.5904 72.7788 3.51805 76.5493 3.51805ZM77.1297 14.7999C79.4791 14.7999 81.2479 12.879 81.2479 10.4594C81.2479 8.03971 79.4966 6.11887 77.1297 6.11887C74.7629 6.11887 72.999 8.05212 72.999 10.4594C72.999 12.8666 74.7804 14.7999 77.1297 14.7999Z" fill="#7557D3"/>
<path d="M107.118 3.82574V5.62961C106.529 4.95549 105.794 4.41658 104.966 4.05151C104.138 3.68644 103.237 3.50427 102.328 3.51806C98.4862 3.51806 95.6719 6.60474 95.6719 10.4656C95.6719 14.3264 98.476 17.4131 102.328 17.4131C103.236 17.4264 104.136 17.245 104.963 16.8818C105.791 16.5186 106.527 15.9825 107.118 15.3115V17.1029H110.103V3.82574H107.118ZM102.922 14.7979C100.526 14.7979 98.7105 12.8773 98.7105 10.4581C98.7105 8.0389 100.495 6.11841 102.922 6.11841C105.349 6.11841 107.118 8.05131 107.118 10.4581C107.118 12.8649 105.315 14.7979 102.922 14.7979Z" fill="#7557D3"/>
<path d="M94.8698 15.1839V14.8496H93.6169C91.933 14.8496 91.2865 14.1413 91.2865 12.6622V6.3418H94.7019V3.76775H91.2965V0.577637H88.3497V3.77025H85.7837V6.3443H88.3572V12.7944C88.3572 15.9072 89.9083 17.4137 92.7273 17.4137C92.8125 17.4137 92.9002 17.4137 92.9779 17.4137H94.8673V15.1864L94.8698 15.1839Z" fill="#7557D3"/>
</svg>
