<svg width="111" height="21" viewBox="0 0 111 21" fill="none" xmlns="http://www.w3.org/2000/svg">
<path d="M8.28467 9.35355C9.26719 9.35388 10.2401 9.16057 11.148 8.78468C12.0558 8.40879 12.8807 7.85767 13.5756 7.16281C14.2704 6.46794 14.8217 5.64295 15.1977 4.73494C15.5738 3.82694 15.7674 2.8537 15.7674 1.87085H8.28467V9.35355Z" fill="white"/>
<path d="M0 10.1553C-5.54313e-08 11.1381 0.193571 12.1114 0.569642 13.0194C0.945713 13.9274 1.4969 14.7524 2.19176 15.4472C2.88663 16.1421 3.71154 16.6932 4.61937 17.0691C5.52719 17.445 6.50017 17.6383 7.4827 17.638V10.1553H0Z" fill="white"/>
<path d="M8.28467 10.1553V17.638H15.7674C15.7674 16.6551 15.5738 15.6819 15.1977 14.7739C14.8217 13.8659 14.2704 13.0409 13.5756 12.346C12.8807 11.6511 12.0558 11.1 11.148 10.7241C10.2401 10.3482 9.26719 10.1549 8.28467 10.1553Z" fill="white"/>
<path d="M0 9.35355H7.4827V1.87085C6.50017 1.87052 5.52719 2.06382 4.61937 2.43972C3.71154 2.81561 2.88663 3.36672 2.19176 4.06159C1.4969 4.75645 0.945713 5.58146 0.569642 6.48947C0.193571 7.39747 -5.54312e-08 8.37069 0 9.35355Z" fill="white"/>
<path d="M16.5688 1.87085C16.5688 3.85538 17.3572 5.75864 18.7605 7.16192C20.1638 8.5652 22.067 9.35355 24.0515 9.35355V1.87085H16.5688Z" fill="white"/>
<path d="M16.5688 17.638H24.0515V10.1553C22.067 10.1553 20.1638 10.9436 18.7605 12.3469C17.3572 13.7502 16.5688 15.6534 16.5688 17.638Z" fill="white"/>
<path d="M35.7688 14.4291C37.653 14.4291 38.9889 13.7616 40.2971 12.4811L41.882 14.0072C40.4153 15.6698 38.5713 16.8361 35.8065 16.8361C31.3259 16.8361 28.3271 13.7615 28.3271 9.88792C28.3271 6.01428 31.419 2.9397 35.5474 2.9397C39.6103 2.9397 42.4908 5.94977 42.4908 9.62488C42.4895 10.0121 42.4465 10.398 42.3625 10.7763H31.341C31.6278 12.893 33.3939 14.4291 35.7688 14.4291ZM31.4341 8.56279H39.4166C39.0417 6.70662 37.5348 5.36165 35.5348 5.36165C34.5872 5.36742 33.6687 5.68566 32.9256 6.26574C32.1826 6.84582 31.6575 7.6544 31.4341 8.56279Z" fill="white"/>
<path d="M56.6548 8.35404V16.5689H53.7271V8.60297C53.7271 6.80317 52.5082 5.54604 50.7421 5.54604C48.9188 5.54604 47.302 7.06207 47.302 9.23278V16.5689H44.3618V3.24837H47.302V5.02079C47.7631 4.3785 48.3699 3.85493 49.0726 3.49313C49.7754 3.13134 50.5539 2.94166 51.3441 2.9397C54.5405 2.9397 56.6548 5.07307 56.6548 8.35404Z" fill="white"/>
<path d="M67.2192 3.20679L63.7226 12.802L60.256 3.20679H57.189L62.2415 16.5262L60.6656 20.8446H63.6002L70.2837 3.20679H67.2192Z" fill="white"/>
<path d="M76.5493 2.94041C77.4413 2.92676 78.3253 3.1093 79.1377 3.47489C79.9501 3.84048 80.6708 4.38006 81.2479 5.05483V3.24814H84.1803V16.5278H81.2479V14.736C80.6677 15.406 79.946 15.9414 79.1341 16.3042C78.3221 16.667 77.4397 16.8484 76.5493 16.8355C72.7788 16.8355 70.0166 13.7607 70.0166 9.88671C70.0166 6.01276 72.7788 2.94041 76.5493 2.94041ZM77.1297 14.2223C79.4791 14.2223 81.2479 12.3014 81.2479 9.88174C81.2479 7.46208 79.4966 5.54124 77.1297 5.54124C74.7629 5.54124 72.999 7.47448 72.999 9.88174C72.999 12.289 74.7804 14.2223 77.1297 14.2223Z" fill="white"/>
<path d="M107.118 3.2481V5.05198C106.529 4.37786 105.794 3.83894 104.966 3.47387C104.138 3.1088 103.237 2.92663 102.328 2.94043C98.4862 2.94043 95.6719 6.02711 95.6719 9.88794C95.6719 13.7488 98.476 16.8355 102.328 16.8355C103.236 16.8487 104.136 16.6674 104.963 16.3041C105.791 15.9409 106.527 15.4048 107.118 14.7338V16.5253H110.103V3.2481H107.118ZM102.922 14.2202C100.526 14.2202 98.7105 12.2997 98.7105 9.88049C98.7105 7.46127 100.495 5.54078 102.922 5.54078C105.349 5.54078 107.118 7.47367 107.118 9.88049C107.118 12.2873 105.315 14.2202 102.922 14.2202Z" fill="white"/>
<path d="M94.8698 14.6062V14.272H93.6169C91.933 14.272 91.2865 13.5636 91.2865 12.0846V5.76417H94.7019V3.19012H91.2965V0H88.3497V3.19261H85.7837V5.76666H88.3572V12.2167C88.3572 15.3295 89.9083 16.8361 92.7273 16.8361C92.8125 16.8361 92.9002 16.8361 92.9779 16.8361H94.8673V14.6087L94.8698 14.6062Z" fill="white"/>
</svg>
